# xmcd
#
# Track frame offsets:
#	150
#	16322
#	31321
#	51565
#	70958
#	87751
#	107232
#	124383
#	138211
#	153664
#	169480
#	186549
#	204276
#	217833
#
# Disc length: 3149 seconds
#
# Revision: 1
# Processed by: cddbd v1.5.1PL0 Copyright (c) Steve Scherf et al.
# Submitted via: MusicWizard 7.2.0
#
DISCID=ce0c4b0e
DTITLE=Kisha - Crazy World
DYEAR=2002
DGENRE=Swiss Pop
TTITLE0=Alive
TTITLE1=Hello
TTITLE2=One Second
TTITLE3=Shame
TTITLE4=Nobody Like Me
TTITLE5=Crazy World
TTITLE6=Sometimes
TTITLE7=Read Between The Lines
TTITLE8=Survivor
TTITLE9=Angels
TTITLE10=Trying To Control Me
TTITLE11=Thank You
TTITLE12=Probably
TTITLE13=Anything But Love
EXTD=
EXTT0=
EXTT1=
EXTT2=
EXTT3=
EXTT4=
EXTT5=
EXTT6=
EXTT7=
EXTT8=
EXTT9=
EXTT10=
EXTT11=
EXTT12=
EXTT13=
PLAYORDER=
